<svg xmlns="http://www.w3.org/2000/svg" width="658" height="721">
  <path fill="none" d="M0 721h371c-5-1.8-11.9-.9-16-3 7.5-10.4 15.6-17.2 27-10 11.5 7 19.6-7.1 30-11 10.4-3.8 23-11.3 35-11 5.6-.8 11-.5 16 0 6.8 0 16.1 1 20 6-23 10.6-46.6 20.6-72 24-9.7 1.8-21.1 4-31 5h278V0H431c.4 7-.5 14 0 21 1 15.6 3 31.2 3 47 1 9.4 1 20.6 0 30 0 12.2-3.8 20.1-6.3 31.7-2.6 11.6-12.8 13.9-23.7 15.3-11 1.3-20 8-31 8-13 5-28.6 12-43 17 3-8 6.6-16.4 12-23 3.6-5.3 7.4-11.1 12-16 8.6 11.5 24.6-3.5 15.8-11.8-9-8.2 8.1-14.3 11.1-23.3s15.5-15.9 17.4-25.6c1.9-9.8 17.3-16.2 12.8-27.4s-17.6 4-21.4 11.8c-3.8 7.8-14 14.8-20 22C363.8 84 354 90.8 347 97c-2.6-13.5-21.3-6.6-17.7 4.7 3.6 11.2-9 15.5-13.6 24S303.9 141.6 301 151a98 98 0 0 0-8 38c-14.4-3.8-19.7-17.6-25-30-5.2-12.6-7.2-33.8-2-47a83.5 83.5 0 0 1 22-34c4-4 8-7.3 12-11 15.7-18.4 39.3-24.2 61-31 21.7-6.8 44.8-16 63-30 2.1-1.6 3.9-4.5 6-6H0v721m241-541c4 8 7 16.4 7 26 .6 6.2 1.3 8.4-5 12-7.4 4.2-11.7 5.5-18.7 11.3-7 5.7-11.3-1.2-16.3-7.3-7-8.6-10.3-14.9-4.7-25.7 5.6-10.8-16.1-16-17.3-4.3-7-7-13.8-13.3-17-23-3-9.8-12-17.3-11-29s-14.4-22.2-17-8c-2.5 14.4 3.7 22.9 5 35 1.2 12.3 6.7 19.6 11 30-12.4 3.2-6.6 24.6 6 18 5.5 6.5 5 14 12.3 19.8 7.2 5.7 1.2 13-2.3 20.2-2 4.7-3.6 9.8-4 15-.3 3.9-.3 8.1 0 12 .3 4.5 6.4 14.8 6 18-.5 3.3-10.2 11.6-14.2 9.2-4-2.3 2.3-11 5.2-14.2-46.5-15.2-66.2-71.5-50-115 .7-2.5 2.7-6.9 3-8 0-2-.2-4 0-6a285.4 285.4 0 0 1 22-86c21 45 79 56.2 100 100m287-77c20.6 0 46.5 10 40 36-18.2-4.3-36.4-9-56-8-7.3 0-13.8.8-21 1-4.2-16.3 5.7-31.3 23-29 4.5-.7 9.6-.4 14 0m-21 67a227 227 0 0 1 56.2 6.8 158 158 0 0 1 45.9 18.1c16.3 9.5 15.9 30.6 15.9 48.1.5 5 .5 11 0 16 0 11.6-.5 23-3 34a131.7 131.7 0 0 0-62-16h-13a336 336 0 0 0-94 15 755.5 755.5 0 0 0-111 41c-.7.3-1 .7-2 1-2.6 1.3-5 3-8 4-8.1 3-16 6.6-24 10a48.5 48.5 0 0 0-12-22c11.7-14.6 10.6-34.6 21-50-16.8-12.1-36.2-24.2-58-20-.8 0-2.3-.3-3 0-1.4.5-2.8 3-5 2a35 35 0 0 1 10-8c13.3-7.3 26-15.5 39-23a448.7 448.7 0 0 1 115-46 338 338 0 0 1 92-11m-302 85c8.8.7 14.2 2.8 20.3 10.8 6 7.9-1.6 14.6-2.6 23.9-1 9.3-12.1 6.7-20 3.5-7.7-3.2-13.2-12-11.7-20.2s4.6-18.7 14-18m-73 55c4.2 9.6 6.9 22.7-.8 32.2-7.6 9.6-19 10.6-30.3 6.9C89.7 345.3 87.1 334 85 324c-4-18.7 1.4-39 13-54 9.1 14.7 28.7 22.8 34 40m154-21c1.6 12-6.4 24.6-18 29-11.7 4.3-28.2-.9-26-16 1.3-9.1 7.2-19.9 16-23 9-3 26.6-1 28 10m-63 34a16 16 0 0 1 0 9c-3.3 11.6-13.2 20.3-26 18a17.3 17.3 0 0 1-10.8-27.8c8.1-10.8 25.3-4.3 36.8-4.2v5m296 50c-.5 2-.5 4-1 6-1.5 6-3.5 12-5 18-5.6 22-11.2 43.6-19 65-3.6 9.8-6.2 21.8-11 31-4.7 9.3-6.3 22.3-12.8 30.2-6.5 8-24.8 3.8-34.2 8.8-9.4 4.9-22.3 5.6-31 12-8.8 6.2-18 9.8-25.8 17.3-7.7 7.4-14.7 13.2-21.4 21.5a48.2 48.2 0 0 1-28 15c-10.3 2-17.1-12.1-26-16.5-9-4.5-17.8-10.8-27.9-15.2-10-4.5-21.4-7.6-33-10-11.5-2.4-28 .4-39.1 1.7-11 1.3-21 10.1-30.5 12.5-9.4 2.4-14.7-14.6-21.6-20-6.8-5.5-12.6-17-18.5-24.5-5.8-7.6-10.6-18.6-15.5-27.5A134 134 0 0 1 106 467c59.4-12.8 116-36.4 171-62 43.4-18.7 85.8-39.3 130-56a533.7 533.7 0 0 1 78-24c14.4-3 28.9-5.8 44-6-2.8 18.1-5.3 36.4-10 54m74 18-6 15c-6.8 17.9-15 35.5-24 52-13 23.9-25 49-43 70-1.2 1.4-2.1 3.4-4 4-.2-2.1.1-4.8 2-6a855.7 855.7 0 0 0 26-69c6.1-19.3 10.4-39.4 16-59a804 804 0 0 0 16-77 75.2 75.2 0 0 1 30.7 10.3c9 6.1-1.3 20-3 29.4-1.8 9.3-7.9 21-10.7 30.3M46 379a66.7 66.7 0 0 0-2 16c-17.2-2.3-26-20.5-31-35-2.6-5.1-8-8.7-10-14 21-7.2 60.4-22.3 69 9-12.2 1.7-22.2 12.8-26 24m199-41c9 6.5 21.3 1.6 31 3s12.5 17.8 3 20c-9.7 2-15 12.4-23.8 3.8-8.8-8.7-10.3-15-10.2-26.8m-84 27c4-.7 7.2 1 11 1a69.7 69.7 0 0 0-2 41c-11 5.4-22.9 9-35 11 4-9.6-1.1-21.8-2.8-30.2-1.6-8.5 13-11.1 16.6-18 3.5-7 12.2-13.3 13.2-21.8 3 5.1-1.3 11.4-1 17m29 30c-1.2-3.3-.4-5.9 0-9 .2-5 1.4-9.1 2-14 13 1.5 24.6-2.5 35-9-.2 5.5 14 14.4 7.8 18.8-6.2 4.3-15 5.8-21.9 9.1A80.1 80.1 0 0 1 190 399v-4m-98-19c2.8.6 3.8.8 6 2 2.6 1.4 4 2.6 6 5 20.1 16.5 10 43.5-15 47-5.3.7-11.5-.3-16-1-6.2-.3-12-1.7-18-3 .8-2 3.3-3 4-5 1-2 2.5-7 3-9 2-18.4 6.7-40.8 30-36m554 142c-.8 1.8-1.5 4-2 6-4.5-1.6-7.9-6.5-11-10a55.1 55.1 0 0 0-58-13 80.2 80.2 0 0 1 29-29c14.4-8.4 28.4.1 42.8 8.3 14.3 8.1 7 25.2-.8 37.7M68 500a85 85 0 0 0-39 10c-4.6-11.1-9.4-22.2-12-34 8-4.4 13.8-3.4 22.7-6.3 8.9-3 16 1.8 18.2 10.4 2.2 8.6 9.2 11.3 10.1 19.9m25 71H80c-4.2 0-8 .3-12 1-1.9.6-2.8 3-6 2-5.7-2-7.2-14.2-11.3-18.7A67.6 67.6 0 0 1 41 535c34.1-17.4 65.3 15 80 43a75.4 75.4 0 0 0-28-7m521 5c-5.9 9-11.9 18.2-23 14-11.1-4.2-14.5-11.2-22-20-2-2.3-5.7-6.2-7.8-8.3-2-2-8.2-4.5-8.2-7.7 0-2.5 7.2-7.6 9-9 21-16.6 48.7-17.4 67 5-4 9.2-10.5 17.2-15 26m-102 5h-13c-34.4 0-65.3 15-91 37l-10 10c-32.1 37.6-59.7 82.8-113 87-4.3.8-8.8.6-13 0-28-1-55.3-12.7-79-26 23-6.5 51.3 8 74 4 22.7-4 39.3-14 56.3-27.8 16.9-13.8 26.2-28.3 39.4-44.5 13.3-16.1 24.7-29.9 42.4-41.6A129 129 0 0 1 468 557c3.9-.3 8.1-.3 12 0 24 1.9 45.6 11.3 64 27-9.8 1.4-21-4.3-32-3m-278 3c11.5.4 26.5 5.4 36 10 9.6 4.4 21.3 11.6 28.3 17.8 6.9 6.2 24 17.4 14.4 24-9.4 6.6-18.6-9.1-27.8-13.7-9.1-4.6-19.8-13-30.6-16.4-10.7-3.5-25.4-11-38.3-7.7-13 3.3-23.4 11.4-37 8-2-.5-5.2-.3-6-3 .7-1.4 2.8-1 4-2 12.4-7.5 23.8-16 39-17a59 59 0 0 1 18 0m-53 51c3.6 0 7.4.3 11 0 17.5-1.4 37-16.8 54.7-6.7 17.6 10.1 32.8 8.8 45.3 24.7-4.3 1.5-7.6 5-12 6a68 68 0 0 1-35.2 5.2C232 663 220.6 659 208 659c-2.7.3-6.7.9-10 1a66.9 66.9 0 0 0-30 9c-8.6 5-16.5-3.6-24.3-8.8-7.7-5-14.8-12.2-21.7-18.2-16.8-8.9-29.3-28.4-41-42 40.2-8 64 31.1 100 35m370 11a92.9 92.9 0 0 1-20 16c-7.3 3.9-13.8 14.9-22.2 11.2-8.5-3.6-16.4-8.8-26-11-9.7-2.1-24.3-3-34.8-2.2-7.3.6-16.4 3.1-23 6-10.3 4.5-21.8 9-31 16-2.3 1.8-4.2 4.7-7 6 1.8-4.5 5-9 9-12 9.7-16 21.5-27.5 35.8-40.3 14.2-12.8 35-18.4 53.2-22.7 5.6-1.3 10.5-3 17-3 26.3 0 53-1.7 77 9-7.4 10-18.5 18.6-28 27Z"/>
  <path fill="none" stroke="#BCE6ED" stroke-width=".3" d="M424 6h5c1.3 5-1.8 7.7-2 12 2.3-.7 1.9 2.9 4 3-.5-7 .4-14 0-21h-1c-2.1 1.5-3.9 4.4-6 6Z"/>
  <path fill="none" stroke="#A3F7F8" stroke-width=".3" d="M300 67a63 63 0 0 0-10 15c-9 22-4.2 51.5 11 69 2.8-9.5 10.1-16.8 14.8-25.3 4.6-8.5 17.1-12.8 13.5-24-3.6-11.3 15-18.2 17.7-4.7 7-6.2 16.8-13 22.8-20.3 6-7.2 16.1-14.2 19.9-22 3.8-7.8 16.9-23 21.4-11.8 4.4 11.2-11 17.6-12.8 27.4-1.9 9.8-14.4 16.6-17.4 25.6-3 9-20 15-11.1 23.3 8.8 8.3-7.2 23.3-15.8 11.8-4.6 4.9-8.4 10.7-12 16 1 3.8 10.1 3.2 14 4 3.9.8 12.6 2 17 2 11 0 20-6.7 31-8 10.9-1.4 21.1-3.7 23.7-15.3 2.5-11.6 6.3-19.5 6.3-31.7V68c0-15.8-2-31.4-3-47-2.1-.1-1.7-3.7-4-3 .2-4.3 3.3-7 2-12h-5a205.4 205.4 0 0 1-63 30c-21.7 6.8-45.3 12.6-61 31Z"/>
  <path fill="none" stroke="#23616B" stroke-opacity=".7" stroke-width=".3" d="M288 78c0 1.1 1.9 3.3 2 4a63 63 0 0 1 10-15c-4 3.7-8 7-12 11Z"/>
  <path fill="none" stroke="#628995" stroke-opacity=".6" stroke-width=".3" d="M434 98c1-9.4 1-20.6 0-30v30Z"/>
  <path fill="none" stroke="#265A76" stroke-opacity=".9" stroke-width=".3" d="M301 151a70.7 70.7 0 0 1-11-69c-.1-.7-2-2.9-2-4a83.5 83.5 0 0 0-22 34c-5.2 13.2-3.2 34.4 2 47 5.3 12.4 10.6 26.2 25 30 0-13.4 3-26 8-38Z"/>
  <path fill="none" stroke="#9BF5F5" stroke-width=".3" d="M119 166c0 5.8 1 13.5 1 20 0 8.6 1.9 18.5 3.8 26.2 1.9 7.7 4.7 16 9 22 4.2 6.1 8.4 12.3 14.9 15.1 6.5 2.8 18.2 9.2 25.3 5.7 3.5-7.1 9.5-14.5 2.3-20.3-7.3-5.7-6.8-13.2-12.3-19.7-12.6 6.6-18.4-14.8-6-18-4.3-10.4-9.8-17.7-11-30-1.3-12.1-7.5-20.6-5-35 2.6-14.2 18-3.7 17 8s8 19.2 11 29c3.2 9.7 10 16 17 23 1.2-11.7 23-6.5 17.3 4.3-5.6 10.8-2.4 17 4.7 25.7 5.2.8 13.6-6.3 17.8-9.3A45 45 0 0 0 238 198a69 69 0 0 0 2-6c.5-3.9 1.5-8 1-12-21-43.8-79-55-100-100a285.4 285.4 0 0 0-22 86Z"/>
  <path fill="none" stroke="#4F6B69" stroke-opacity=".4" stroke-width=".3" d="M514 103h14c-4.4-.4-9.5-.7-14 0Z"/>
  <path fill="none" stroke="#BCF7F6" stroke-width=".3" d="M512 131c6.6-.6 23.9-1.3 17-10-6.7-8.8-1.9-16.2-12-18h-3c-17.3-2.3-27.2 12.7-23 29 7.2-.2 13.7-1 21-1Z"/>
  <path fill="none" stroke="#F5F8F8" stroke-width=".3" d="M512 131c19.6-1 37.8 3.7 56 8 6.5-26-19.4-36-40-36h-11c10.1 1.8 5.3 9.2 12 18 6.9 8.7-10.4 9.4-17 10Z"/>
  <path fill="none" stroke="#2D5E74" stroke-opacity=".9" stroke-width=".3" d="M373 153c-4.4 0-13.1-1.2-17-2-3.9-.8-13-.2-14-4-5.4 6.6-9 15-12 23 14.4-5 30-12 43-17Z"/>
  <path fill="none" stroke="#74BEC9" stroke-width=".3" d="M119 172c0 3.9-.5 8.1 0 12 .1 1.1.8 1.4 1 2 0-6.5-1-14.2-1-20-.2 2 0 4 0 6Z"/>
  <path fill="none" stroke="#5F6466" stroke-opacity=".4" stroke-width=".3" d="M496 170h11c-3.4-.3-7.5-.3-11 0Z"/>
  <path fill="none" stroke="#F9FAFB" stroke-width=".3" d="M415 181c.6 4 5 2.9 8 3-.4 2.5 4.9 6.8 9 6 7 11.1 25.4 11.5 32 23 13 .3 27 .8 38.2 4.8 11.3 4 21 8.7 31.8 12.2 6.5 7.5 16.5 13.5 23 22 6.7 8.3 17.4 14.6 19 26 16.2 2.1 31.6 7.2 46 15 2.5-11 3-22.4 3-34v-16c0-17.5.4-38.6-16-48a158 158 0 0 0-45.8-18.2A227 227 0 0 0 507 170h-11a338 338 0 0 0-81 11m167 22c32.8 3.4 27.7 56.5-6 53s-27-56.5 6-53Z"/>
  <path fill="none" stroke="#1A5564" stroke-opacity=".8" stroke-width=".3" d="M116 180c.4 2 2 2.3 3 4-.5-3.9 0-8.1 0-12-.3 1.1-2.3 5.5-3 8Z"/>
  <path fill="none" stroke="#265A76" stroke-opacity=".9" stroke-width=".3" d="M169 282c-.7-4-.7-8 0-12 .4-5.2 2-10.3 4-15-7.2 3.5-18.8-3-25.3-5.7-6.5-2.8-10.7-9-15-15-4.2-6.2-7-14.4-9-22-1.8-7.8-3.7-17.7-3.7-26.3-.2-.6-.9-.9-1-2-1-1.7-2.6-2-3-4-16.2 43.5 3.5 99.8 50 115-3 3.2-9.2 11.9-5.2 14.2 4 2.4 13.7-6 14.2-9.2.4-3.2-5.7-13.5-6-18Z"/>
  <path fill="none" stroke="#275D7B" stroke-opacity=".9" stroke-width=".3" d="M240 192c-.4 3.7-.7 3.8-2 6a45 45 0 0 1-12.3 14.8c-4.1 2.9-12.5 10-17.7 9.2 5 6 9.2 13 16.3 7.3 7-5.8 11.3-7.2 18.7-11.3 1.2-1 1.8-5 5-4v-8c0-9.6-3-18-7-26 .5 4-.5 8.1-1 12Z"/>
  <path fill="none" stroke="#C8FBFB" stroke-width=".3" d="M300 227c-1.8 4.7 5.7 10.5 6.8 15.2 1 4.7 4.6 10.6 6.5 15.5 2 4.9 4.8 11.2 6.7 16.3 10.6-8.2 25.4-12.3 34-22 1.1 1 1.3 2.3 3 1-.4-2.7.6-5 1-7 3.6-17.6 23-29.7 39.7-20.7A27.1 27.1 0 0 1 403 269c4-1.6 7.3-7 12-11-3 6.2 7.8 7.6 8 14 2.1-2.7 9.7 2.2 9 6 6.3-1.4 7.9 2.3 13 4 5.3 1.5 7.4 5.1 10 6 .7 2.2-2.7 1.7-2 4a336 336 0 0 1 94-15c4-.4 9-.4 13 0 5.5 0 10.8.1 16 1-1.6-11.4-12.3-17.7-19-26-6.5-8.5-16.5-14.5-23-22-10.8-3.5-20.5-8.2-31.8-12.2s-25.1-4.5-38.2-4.8c-6.6-11.5-25-11.9-32-23-4.1.8-9.4-3.5-9-6-3-.1-7.4 1-8-3a448.7 448.7 0 0 0-115 46Z"/>
  <path fill="none" stroke="#177C7D" stroke-width=".3" d="M238 198c1.3-2.2 1.6-2.3 2-6a69 69 0 0 1-2 6Z"/>
  <path fill="none" stroke="#01010E" stroke-width=".3" d="M582 203c-33-3.5-39.7 49.5-6 53s38.8-49.6 6-53Z"/>
  <path fill="none" stroke="#15354F" stroke-opacity=".2" stroke-width=".3" d="M243 218c6.3-3.6 5.6-5.8 5-12v8c-3.2-1-3.8 3-5 4Z"/>
  <path fill="none" stroke="#010210" stroke-width=".3" d="M358 246c-.3 2.8-.3 6.2 0 9 3.7 11 9 18.3 21 21 3 .3 6 0 9 0h1c2.4-3.2 5.6-2.7 9-4 1.4-1 3.5-1.6 5-3a27.1 27.1 0 0 0-5.3-43.7c-16.7-9-36 3.1-39.7 20.7Z"/>
  <path fill="none" stroke="#255A75" stroke-opacity=".9" stroke-width=".3" d="M261 250c-.7.6-1.2 1.4-2 2-1.1 1.7 1.8 3 0 4 21.8-4.2 41.2 7.9 58 20-10.4 15.4-9.3 35.4-21 50a48.5 48.5 0 0 1 12 22c8-3.4 15.9-7 24-10 2.6-1.3 4.8-3 8-4 1-.3 1.3-.7 2-1-.1-3.5-5.9-9.2-6-14-.1-4.8-4.8-9.6-5.3-14.7-.5-5-4-9.5-5.5-14.5-1.4-5-3.4-10.8-5.2-15.8-1.9-5.1-4.8-11.4-6.7-16.3-2-5-5.4-10.8-6.5-15.5-1.1-4.7-8.6-10.5-6.8-15.2-13 7.5-25.7 15.7-39 23Z"/>
  <path fill="none" stroke="#656E76" stroke-opacity=".5" stroke-width=".3" d="M625 259c.5-5 .5-11 0-16v16Z"/>
  <path fill="none" stroke="#4E797D" stroke-width=".3" d="M357 253c.2 1.3.7 1.2 1 2-.3-2.8-.3-6.2 0-9-.4 2-1.4 4.3-1 7Z"/>
  <path fill="none" stroke="#1E3442" stroke-opacity=".1" stroke-width=".3" d="M256 256c-.2.2 1.8-3 3-4 .8-.6 1.3-1.4 2-2a35 35 0 0 0-10 8c2.2 1 3.6-1.5 5-2Z"/>
  <path fill="none" stroke="#3E5068" stroke-opacity=".5" stroke-width=".3" d="M256 256c.7-.3 2.2 0 3 0 1.8-1-1.1-2.3 0-4a17 17 0 0 0-3 4Z"/>
  <path fill="none" stroke="#93F2F3" stroke-width=".3" d="M320 274c1.8 5 3.8 10.8 5.2 15.8 1.5 5 5 9.4 5.5 14.5s5.2 9.9 5.3 14.7c.1 4.8 5.9 10.5 6 14a759 759 0 0 1 111-41c-.7-2.3 2.7-1.8 2-4-2.6-.9-4.7-4.5-10-6-5.1-1.7-6.8-5.4-13-4 .7-3.8-6.9-8.7-9-6-.2-6.4-11-7.8-8-14-4.7 4-8 9.4-12 11-1.5 1.4-3.6 2-5 3-3 2-4.9 3.8-9 4h-1c-2.8 2-6.4.6-9 0-12-2.7-17.3-10-21-21-.3-.8-.8-.8-1-2-1.7 1.3-1.9 0-3-1-8.6 9.7-23.4 13.8-34 22Z"/>
  <path fill="none" stroke="#B8F5F6" stroke-width=".3" d="M205 255c-9.4-.7-12.5 9.8-14 18s4 17 11.8 20.2c7.8 3.2 18.8 5.8 19.9-3.5 1-9.3 8.6-16 2.6-24-6.1-7.9-11.5-10-20.3-10.7Z"/>
  <path fill="none" stroke="#94F4F4" stroke-width=".3" d="M85 324c12 17.4 48.3 8.2 47-14-5.3-17.2-24.9-25.3-34-40a67.2 67.2 0 0 0-13 54Z"/>
  <path fill="none" stroke="#1A304E" stroke-opacity=".2" stroke-width=".3" d="M169 282c-.3-3.9-.3-8.1 0-12-.7 4-.7 8 0 12Z"/>
  <path fill="none" stroke="#072A29" stroke-width=".3" d="M389 276c4.1-.2 6-2 9-4-3.4 1.3-6.6.8-9 4Z"/>
  <path fill="none" stroke="#165751" stroke-width=".3" d="M388 276c-3 0-6 .3-9 0 2.6.6 6.3 2 9 0Z"/>
  <path fill="none" stroke="#6E8187" stroke-opacity=".6" stroke-width=".3" d="M547 277h13c-4-.4-9-.4-13 0Z"/>
  <path fill="none" stroke="#CCF7F8" stroke-width=".3" d="M242 302c2.8-2.8 11.8 1 16.2-.8 4.4-1.8 11.7-1.4 16-4 4.4-2.6 8.2-4.4 11.8-8.2-1.4-11-19-13-28-10-8.8 3.1-14.7 13.9-16 23Z"/>
  <path fill="none" stroke="#7ADFDF" stroke-width=".3" d="M242 302c-2.2 15.1 14.3 20.3 26 16a28.3 28.3 0 0 0 18-29c-3.6 3.8-7.4 5.6-11.8 8.2-4.3 2.6-11.6 2.2-16 4-4.4 1.9-13.4-2-16.2.8Z"/>
  <path fill="none" stroke="#275C78" stroke-opacity=".9" stroke-width=".3" d="M85 324c2.1 10 4.7 21.3 16 25 11.1 3.8 22.6 2.8 30.2-6.8 7.7-9.5 5-22.6.8-32.2 1.3 22.2-35 31.4-47 14Z"/>
  <path fill="none" stroke="#8EF0ED" stroke-width=".3" d="M223 332c.4-2.6.3-6.3 0-9v-5c-11.5 0-28.7-6.6-36.8 4.3-8 10.8-2 25.4 10.8 27.7 12.8 2.3 22.7-6.4 26-18Z"/>
  <path fill="none" stroke="#E6F7F7" stroke-width=".3" d="M485 325c2.7 0 7.5 2.1 11 1 7.6 6.3 10.5 13.6 17.7 20.3 7.2 6.7 6.8 17.6 5.3 26.7 4.8-17.6 7.2-35.9 10-54-15.1.2-29.6 3-44 6Z"/>
  <path fill="none" stroke="#F7F8F9" stroke-width=".3" d="M565 378c1.5 4.4 9 3.3 12.1 5.9 3.1 2.6 10.8 3.8 14.9 4.1.1 1-.5 2.7 1 3 2.8-9.3 9-21 10.7-30.3 1.7-9.3 12-23.3 3-29.4-9-6.1-20.3-8.6-30.7-10.3a804 804 0 0 1-11 57Z"/>
  <path fill="none" stroke="#356E7B" stroke-opacity=".5" stroke-width=".3" d="M223 332c1-3.2.8-5.7 0-9 .3 2.7.4 6.4 0 9Z"/>
  <path fill="none" stroke="#ADF9FA" stroke-width=".3" d="M407 349c1-.1 4.3 1.8 6 0-3.5 8.3 1.1 16.3-1 25 5.7-1 3.4 3.4-1 2-.8 3.8 5.7 0 5 4-3.7-.7-11.3 1.1-11 4 15-8.9 17.4 14.4 31.2 14.8 13.8.4 24.4-6.1 27.1-21.5 2.8-15.4 23.3-11.2 22.7 5.7 2.8-4.3 10.6-1.3 15-3s12-.8 17-1c.5-2 .5-4 1-6 1.5-9 1.9-20-5.3-26.7-7.2-6.7-10.1-14-17.7-20.3-3.5 1.1-8.3-1-11-1a533.7 533.7 0 0 0-78 24Z"/>
  <path fill="none" stroke="#092D48" stroke-opacity=".1" stroke-width=".3" d="M332 338c3-1 5.4-2.7 8-4-3.2 1-5.4 2.7-8 4Z"/>
  <path fill="none" stroke="#94F2F2" stroke-width=".3" d="M13 360a56 56 0 0 0 13.2 12.8c4.4 2.4 14.6 9.1 19.8 6.2 3.8-11.2 13.8-22.3 26-24-8.6-31.3-48-16.2-69-9 2 5.3 7.4 8.9 10 14Z"/>
  <path fill="none" stroke="#448FA0" stroke-opacity=".9" stroke-width=".3" d="M245 338c0 11.8 1.4 18.1 10.3 26.8 8.8 8.6 14-1.8 23.6-3.9 9.6-2.1 6.8-18.4-2.9-19.9-9.7-1.4-22 3.5-31-3Z"/>
  <path fill="none" stroke="#275875" stroke-opacity=".9" stroke-width=".3" d="M161 365c-.3-5.6 4-11.9 1-17-1 8.5-9.7 14.8-13.3 21.8-3.5 6.9-18.1 9.5-16.5 18 1.7 8.4 6.9 20.6 2.8 30.2 12.1-2 24-5.6 35-11a69.7 69.7 0 0 1 2-41c-3.8 0-7-1.7-11-1Z"/>
  <path fill="none" stroke="#84E9EC" stroke-width=".3" d="M277 405c.2 5.9 3.2 12.8 5 18 1.7 5.4 2.7 13 5.8 17.2 3 4.3 3 14.8 8.2 15.8 11.1-5 28.2-11.2 38.7-16.3 10.5-5.1 29.4-18.7 36.2-2.6 6.8 16-16.8 20.3-27 25.8C333.8 468.4 317 475 306 480c-3.3 4.2 4.8 10.5 6 15 1 4.6 5.4 10.9 7.3 15.7 1.9 4.8 6.4 10.1 7.7 15.3 56-20.4 108.4-51.6 167-64 7.8-21.4 13.4-43 19-65-4.3 2.4-12.2-1.2-17 1-4.8 2.1-10.6-1.4-15 2a48.8 48.8 0 0 1-50 23c-18-3.4-39.2-21.6-26-39-.3-2.9 7.3-4.7 11-4 .7-4-5.8-.2-5-4 4.4 1.4 6.7-3 1-2 2.1-8.7-2.5-16.7 1-25-1.7 1.8-5-.1-6 0-44.2 16.7-86.6 37.3-130 56Z"/>
  <path fill="none" stroke="#205069" stroke-opacity=".8" stroke-width=".3" d="M46 379c-5.2 3-15.4-3.8-19.8-6.2A56 56 0 0 1 13 360c5 14.5 13.8 32.7 31 35 .2-5.5.6-10.9 2-16Z"/>
  <path fill="none" stroke="#275A75" stroke-opacity=".9" stroke-width=".3" d="M190 386c-.1 2.7-.6 6.3 0 9v4c7.7-1 16.1-4.8 23-8 6.8-3.4 15.6-5 21.8-9.3 6.1-4.3-8-13.2-7.8-18.7a53.4 53.4 0 0 1-35 9c-.6 4.9-1.8 9-2 14Z"/>
  <path fill="none" stroke="#020311" stroke-width=".3" d="M405 384c-13.2 17.4 8 35.6 26 39 18 3.4 40.8-5.5 50-23a40 40 0 0 0 5-17c.6-17-20-21-22.7-5.7-2.7 15.4-13.3 21.9-27 21.5-13.9-.4-16.2-23.7-31.3-14.8Z"/>
  <path fill="none" stroke="#2C6175" stroke-opacity=".9" stroke-width=".3" d="M62 412c-.1 1 .2 8.1 1 5 10-11.3 12.2-37.1 31-39-.6-.1-3.2-2.6-2-2-23.3-4.8-28 17.6-30 36Z"/>
  <path fill="none" stroke="#396D74" stroke-opacity=".5" stroke-width=".3" d="M94 378c1.2-.1 2.8-.2 4 0a18.4 18.4 0 0 0-6-2c-1.2-.6 1.4 1.9 2 2Z"/>
  <path fill="none" stroke="#99F5F5" stroke-width=".3" d="m63 417-4 4c-.7 2-3.2 3-4 5 6 1.3 11.8 2.7 18 3a45 45 0 0 0 16-1c17.7-5.7 27.8-30 15-45-2-2.4-3.4-3.6-6-5-1.2-.2-2.8-.1-4 0-18.8 1.9-21 27.7-31 39Z"/>
  <path fill="none" stroke="#69C8CF" stroke-width=".3" d="M560 398c3.8 1.2 9.7 3.4 13.7 3.3 4 0 9.5 6.5 13.3 4.7l6-15c-1.5-.3-.9-2-1-3-4.1-.4-11.8-1.5-14.9-4.1-3.1-2.6-10.6-1.5-12.1-5.9-1.4 6.2-3.1 13.5-5 20Z"/>
  <path fill="none" stroke="#62BFC9" stroke-width=".3" d="M486 383a40 40 0 0 1-5 17c4.4-3.4 10.2.1 15-2 4.8-2.2 12.8 1.4 17-1 1.5-6 3.5-12 5-18-5 .3-12.6-.7-17 1s-12.2-1.3-15 3Z"/>
  <path fill="none" stroke="#286079" stroke-opacity=".8" stroke-width=".3" d="M89 428c-.2.3.2 2 0 2 25-3.5 35.1-30.5 15-47 12.8 15 2.7 39.3-15 45Z"/>
  <path fill="none" stroke="#062643" stroke-opacity=".1" stroke-width=".3" d="M190 395c-.6-2.7-.1-6.3 0-9-.4 3.1-1.2 5.7 0 9Z"/>
  <path fill="none" stroke="#B4F6F6" stroke-width=".3" d="M544 457c5.8-2.6 13.2 3.2 19 1 9-16.5 17.2-34.1 24-52-3.8 1.8-9.4-4.7-13.3-4.7-4 0-9.9-2-13.7-3.3-5.6 19.6-9.9 39.7-16 59Z"/>
  <path fill="none" stroke="#225976" stroke-width=".3" d="M494 462c-58.6 12.4-111 43.6-167 64-1.3-5.2-5.8-10.5-7.7-15.3-1.9-4.8-6.3-11-7.4-15.6-1-4.6-9.2-11-5.9-15.1-13.5 6-25.2 10-39 16s-25.8 8.7-40.2 14.8c-14.5 6-26.2 6-41.8 13.2-15.7 7.2-26.6-18-10-23 16.7-4.9 26-9.5 41.2-13.8 15.2-4.3 25.9-9.9 40-15A611.9 611.9 0 0 0 296 456c-5.3-1-5.1-11.5-8.2-15.8-3.1-4.2-4.1-11.8-5.9-17.1-1.7-5.3-4.7-12.2-4.9-18.1-55 25.6-111.6 49.2-171 62a134 134 0 0 0 11.7 31.3c4.9 8.9 9.7 20 15.5 27.5 5.9 7.5 11.7 19 18.6 24.5 6.8 5.4 12 22.4 21.5 20 9.4-2.4 19.4-11.2 30.5-12.5 11-1.3 27.6-4.1 39.1-1.7 11.6 2.4 23 5.5 33 10 10.1 4.4 19 10.7 27.9 15.1 8.9 4.5 15.7 18.7 26 16.6a49.2 49.2 0 0 0 28-15c6.7-8.3 13.7-14 21.4-21.5 7.8-7.5 17-11 25.7-17.4 8.8-6.3 21.7-7 31-12 9.5-4.9 27.8-.7 34.3-8.7 6.5-8 8.1-20.9 12.9-30.1 4.7-9.3 7.3-21.3 10.9-31.1Z"/>
  <path fill="none" stroke="#295963" stroke-opacity=".5" stroke-width=".3" d="m59 421 4-4c-.8 3.1-1.1-4-1-5-.5 2-2 7-3 9Z"/>
  <path fill="none" stroke="#103E43" stroke-opacity=".3" stroke-width=".3" d="M73 429c4.5.7 10.8 1.7 16 1 .2 0-.2-1.7 0-2a46.6 46.6 0 0 1-16 1Z"/>
  <path fill="none" stroke="#020210" stroke-width=".3" d="M296 456a611.9 611.9 0 0 1-39.8 16.2c-14.1 5.1-24.8 10.7-40 15-15.1 4.3-24.5 9-41.1 13.9-16.7 5-5.8 30 9.9 22.9 15.6-7.2 27.3-7.2 41.8-13.2 14.4-6 26.4-8.9 40.2-14.8 13.8-6 25.5-10 39-16 11-5 27.8-11.6 38-17 10-5.6 33.7-9.9 27-26-6.9-16-25.8-2.4-36.3 2.7-10.5 5-27.6 11.4-38.7 16.3Z"/>
  <path fill="none" stroke="#295976" stroke-opacity=".8" stroke-width=".3" d="M518 526c-.2 1.2-.5 2-1 3 1.3.5 1.9-1 3-1 18-21 30-46.1 43-70-5.8 2.2-13.2-3.6-19-1a855.7 855.7 0 0 1-26 69Z"/>
  <path fill="none" stroke="#8FF0EF" stroke-width=".3" d="M633 514c3 1 9.3 1 13 4 7.7-12.5 15.1-29.6.8-37.8-14.4-8.1-28.4-16.6-42.7-8.1A80.2 80.2 0 0 0 575 501c20.2-7.6 43-2 58 13Z"/>
  <path fill="none" stroke="#85E5E5" stroke-width=".3" d="M68 500c-.9-8.6-7.9-11.3-10-20-2.3-8.5-9.4-13.2-18.3-10.3-9 2.9-14.7 1.9-22.7 6.3 2.6 11.8 7.4 22.9 12 34a85 85 0 0 1 39-10Z"/>
  <path fill="none" stroke="#498A96" stroke-opacity=".8" stroke-width=".3" d="M633 514c3.1 3.5 6.5 8.4 11 10 .5-2 1.2-4.2 2-6-3.7-3-10-3-13-4Z"/>
  <path fill="none" stroke="#1C2846" stroke-opacity=".1" stroke-width=".3" d="M520 528c-1.1 0-1.7 1.5-3 1 .5-1 .8-1.8 1-3-1.9 1.2-2.2 3.9-2 6 1.9-.6 2.8-2.6 4-4Z"/>
  <path fill="none" stroke="#80E2E4" stroke-width=".3" d="M62 574c1.2-2.2 3.9-1.6 6-2 4-.7 7.8-1 12-1 4.1-.4 8.9-.5 13 0 9.9.3 19.2 3.1 28 7-14.8-28-45.9-60.4-80-43 2 5.8 5.6 15.8 9.7 20.3S56.3 572.1 62 574Z"/>
  <path fill="none" stroke="#80E4E7" stroke-width=".3" d="M562 545c-3 2.8-5.3 7-9 9 0 3.2 6.2 5.7 8.3 7.8 2 2 5.7 5.9 7.7 8.2 6.5-4.4 18.3.2 24.7-.7 6.3-.8 16 9.5 20.3 6.7 4.5-8.8 11-16.8 15-26-18.3-22.4-46-21.6-67-5Z"/>
  <path fill="none" stroke="#406B70" stroke-opacity=".4" stroke-width=".3" d="M553 554c3.7-2 6-6.2 9-9-1.8 1.4-9 6.5-9 9Z"/>
  <path fill="none" stroke="#9FF6F6" stroke-width=".3" d="M272 715c4.2.2 8.8.3 13 0 53.3-4.2 80.9-49.4 113-87 3-3.6 6.4-7 10-10 25.7-22 56.6-37 91-37 4-.4 9-.4 13 0 11-1.3 22.2 4.4 32 3a110.5 110.5 0 0 0-64-27h-12a129 129 0 0 0-63 22c-17.6 11.9-29 25.6-42.3 41.8-13.2 16.1-22.5 30.6-39.4 44.5A117.5 117.5 0 0 1 267 693c-22.7 4-51-10.5-74-4 23.7 13.3 51 25 79 26Z"/>
  <path fill="none" stroke="#A9CBD4" stroke-width=".3" d="M480 557c-3.9-.3-8.1-.3-12 0h12Z"/>
  <path fill="none" stroke="#265872" stroke-opacity=".9" stroke-width=".3" d="M569 570c7.5 8.8 10.9 15.8 22 20 11.1 4.2 17.1-5 23-14-4.3 2.8-14-7.5-20.3-6.7-6.4 1-18.2-3.7-24.7.7Z"/>
  <path fill="none" stroke="#365762" stroke-opacity=".3" stroke-width=".3" d="M80 571h13c-4.1-.5-8.9-.4-13 0Z"/>
  <path fill="none" stroke="#3F6979" stroke-opacity=".7" stroke-width=".3" d="M62 574c3.2 1 4.1-1.4 6-2-2.1.4-4.8-.2-6 2Z"/>
  <path fill="none" stroke="#4D606A" stroke-opacity=".4" stroke-width=".3" d="M499 581h13c-4-.4-9-.4-13 0Z"/>
  <path fill="none" stroke="#283552" stroke-opacity=".2" stroke-width=".3" d="M216 584c5.9-.4 12.1-.2 18 0a59 59 0 0 0-18 0Z"/>
  <path fill="none" stroke="#295F7C" stroke-opacity=".9" stroke-width=".3" d="M177 601c-.7 1.3-1.2 2.5-1 4 1 .1 2.7-.5 3 1 13.6 3.4 24-4.7 37-8s27.6 4.2 38.3 7.7c10.8 3.4 21.4 11.8 30.6 16.4 9.2 4.6 18.4 20.3 27.9 13.6 9.4-6.6-7.6-17.8-14.6-24a134.9 134.9 0 0 0-28.1-17.8A106.5 106.5 0 0 0 216 584c-15.2 1-26.6 9.5-39 17Z"/>
  <path fill="none" stroke="#93F2F2" stroke-width=".3" d="M122 642c15.8 8.3 35.8 14 54 14h16c16 0 30.1-6 46-6 3.2-.3 6.8-.4 10 0 5.8.1 11.6 2 17 3s9.6 6.3 15 6c4.4-1 7.7-4.5 12-6-12.5-15.9-27.7-14.6-45.3-24.7-17.7-10-37.2 5.3-54.7 6.7a35 35 0 0 1-11 0c-36-3.9-59.8-43-100-35 11.7 13.6 24.2 33.1 41 42Z"/>
  <path fill="none" stroke="#2B535A" stroke-opacity=".3" stroke-width=".3" d="M179 606c-.3-1.5-2-.9-3-1-.2-1.5.3-2.7 1-4-1.2 1-3.3.6-4 2 .8 2.7 4 2.5 6 3Z"/>
  <path fill="none" stroke="#8DF0F1" stroke-width=".3" d="M502 610c-4.6.7-10.4 3.2-15 5a139 139 0 0 0-46 31c-4.7 4.7-13 11.4-16 17 0 .2-.4 3.7 0 3a78.9 78.9 0 0 1 23-6c20.7-6.4 41-14 64-14 7.5-.7 16.5-.7 24 0 4.3 0 11.5 1.4 15 0 9.5-8.4 20.6-17 28-27-24-10.7-50.8-9-77-9Z"/>
  <path fill="none" stroke="#1B5759" stroke-opacity=".6" stroke-width=".3" d="M485 613c.3.1 1.8 2 2 2 4.6-1.8 10.4-4.3 15-5-6.5 0-11.4 1.7-17 3Z"/>
  <path fill="none" stroke="#265A70" stroke-opacity=".9" stroke-width=".3" d="M396 676c-1.3 2.2-1.4 4.7-2 6 9.2-7 20.7-11.5 31-16-.4.7 0-2.8 0-3 1.2-5.8 7-7 7-13 4.8.9 3.5-6.3 9-4a139 139 0 0 1 46-31c-.2 0-1.7-1.9-2-2-18.2 4.3-39 10-53.3 22.8A176.5 176.5 0 0 0 396 676Z"/>
  <path fill="none" stroke="#386C6E" stroke-opacity=".4" stroke-width=".3" d="m398 628 10-10c-3.6 3-7 6.4-10 10Z"/>
  <path fill="none" stroke="#6C9199" stroke-opacity=".7" stroke-width=".3" d="M192 635c-3.6.3-7.4 0-11 0 3.6.4 7.3.7 11 0Z"/>
  <path fill="none" stroke="#285C76" stroke-opacity=".9" stroke-width=".3" d="M198 660c2.8-.4 6.5-1 10-1 12.6 0 24.1 4 36.8 5.2A68 68 0 0 0 280 659c-5.4.3-9.6-5-15-6s-11.2-2.9-17-3h-10c-15.9 0-30 6-46 6-5 .5-11 .5-16 0-18.2 0-38.2-5.7-54-14 7 6 14 13.1 21.8 18.3 7.7 5 15.6 13.7 24.1 8.6 8.6-5 20-8.5 30.1-8.9Z"/>
  <path fill="none" stroke="#0E676C" stroke-width=".3" d="M512 646h24c-7.5-.7-16.5-.7-24 0Z"/>
  <path fill="none" stroke="#1F7078" stroke-width=".3" d="M425 663c3-5.6 11.3-12.3 16-17-5.5-2.3-4.2 4.9-9 4 0 6-5.8 7.2-7 13Z"/>
  <path fill="none" stroke="#235975" stroke-opacity=".9" stroke-width=".3" d="M448 660c10.5-.8 25.1 0 34.8 2.2 9.6 2.2 17.5 7.4 26 11 8.4 3.7 14.9-7.3 22.1-11.3 7.3-4 14.2-10 20.1-15.9-3.5 1.4-10.7 0-15 0h-24c-23 0-43.3 7.6-64 14Z"/>
  <path fill="none" stroke="#489AA6" stroke-width=".3" d="M238 650h10c-3.2-.4-6.8-.3-10 0Z"/>
  <path fill="none" stroke="#5CA0AD" stroke-width=".3" d="M192 656h-16c5 .5 11 .5 16 0Z"/>
  <path fill="none" stroke="#092545" stroke-opacity=".1" stroke-width=".3" d="M198 660c3.3-.1 7.3-.7 10-1-3.5 0-7.2.6-10 1Z"/>
  <path fill="none" stroke="#29384F" stroke-opacity=".2" stroke-width=".3" d="M394 682c.6-1.3.7-3.8 2-6-4 3-7.2 7.5-9 12 2.8-1.3 4.7-4.2 7-6Z"/>
  <path fill="none" stroke="#1B314C" stroke-opacity=".1" stroke-width=".3" d="M447 686c1.1 0 3.2 1.1 5 1 3.4-.2 7.3-1 11-1-5-.5-10.4-.8-16 0Z"/>
  <path fill="none" stroke="#113855" stroke-opacity=".9" stroke-width=".3" d="M371 721h9c9.9-1 21.3-3.2 31-5 5.1-3.2 13.5-9.9 21.2-12.8 7.8-2.8 13-12.4 19.8-16.2-1.8.1-3.9-1-5-1-12-.3-24.6 7.2-35 11-10.4 3.9-18.5 18-30 11-11.4-7.2-19.5-.4-27 10 4.1 2.1 11 1.3 16 3Z"/>
  <path fill="none" stroke="#2D627D" stroke-opacity=".9" stroke-width=".3" d="M452 687c-6.9 3.8-12 13.4-19.8 16.2-7.7 2.9-16 9.6-21.2 12.8 25.4-3.4 49-13.4 72-24-3.9-5-13.2-6-20-6-3.8 0-7.6.8-11 1Z"/>
  <path fill="none" stroke="#002C2E" stroke-opacity=".1" stroke-width=".3" d="M285 715c-4.2.3-8.8.2-13 0 4.2.6 8.7.8 13 0Z"/>
  <path fill="none" stroke="None" d="M0 721h371c-5-1.8-11.9-.9-16-3 7.5-10.4 15.6-17.2 27-10 11.5 7 19.6-7.1 30-11 10.4-3.8 23-11.3 35-11 5.6-.8 11-.5 16 0 6.8 0 16.1 1 20 6-23 10.6-46.6 20.6-72 24-9.7 1.8-21.1 4-31 5h278V0H431c.4 7-.5 14 0 21 1 15.6 3 31.2 3 47 1 9.4 1 20.6 0 30 0 12.2-3.8 20.1-6.3 31.7-2.6 11.6-12.8 13.9-23.7 15.3-11 1.3-20 8-31 8-13 5-28.6 12-43 17 3-8 6.6-16.4 12-23 3.6-5.3 7.4-11.1 12-16 8.6 11.5 24.6-3.5 15.8-11.8-9-8.2 8.1-14.3 11.1-23.3s15.5-15.9 17.4-25.6c1.9-9.8 17.3-16.2 12.8-27.4s-17.6 4-21.4 11.8c-3.8 7.8-14 14.8-20 22C363.8 84 354 90.8 347 97c-2.6-13.5-21.3-6.6-17.7 4.7 3.6 11.2-9 15.5-13.6 24S303.9 141.6 301 151a98 98 0 0 0-8 38c-14.4-3.8-19.7-17.6-25-30-5.2-12.6-7.2-33.8-2-47a83.5 83.5 0 0 1 22-34c4-4 8-7.3 12-11 15.7-18.4 39.3-24.2 61-31 21.7-6.8 44.8-16 63-30 2.1-1.6 3.9-4.5 6-6H0v721m241-541c4 8 7 16.4 7 26 .6 6.2 1.3 8.4-5 12-7.4 4.2-11.7 5.5-18.7 11.3-7 5.7-11.3-1.2-16.3-7.3-7-8.6-10.3-14.9-4.7-25.7 5.6-10.8-16.1-16-17.3-4.3-7-7-13.8-13.3-17-23-3-9.8-12-17.3-11-29s-14.4-22.2-17-8c-2.5 14.4 3.7 22.9 5 35 1.2 12.3 6.7 19.6 11 30-12.4 3.2-6.6 24.6 6 18 5.5 6.5 5 14 12.3 19.8 7.2 5.7 1.2 13-2.3 20.2-2 4.7-3.6 9.8-4 15-.3 3.9-.3 8.1 0 12 .3 4.5 6.4 14.8 6 18-.5 3.3-10.2 11.6-14.2 9.2-4-2.3 2.3-11 5.2-14.2-46.5-15.2-66.2-71.5-50-115 .7-2.5 2.7-6.9 3-8 0-2-.2-4 0-6a285.4 285.4 0 0 1 22-86c21 45 79 56.2 100 100m287-77c20.6 0 46.5 10 40 36-18.2-4.3-36.4-9-56-8-7.3 0-13.8.8-21 1-4.2-16.3 5.7-31.3 23-29 4.5-.7 9.6-.4 14 0m-21 67a227 227 0 0 1 56.2 6.8 158 158 0 0 1 45.9 18.1c16.3 9.5 15.9 30.6 15.9 48.1.5 5 .5 11 0 16 0 11.6-.5 23-3 34a131.7 131.7 0 0 0-62-16h-13a336 336 0 0 0-94 15 755.5 755.5 0 0 0-111 41c-.7.3-1 .7-2 1-2.6 1.3-5 3-8 4-8.1 3-16 6.6-24 10a48.5 48.5 0 0 0-12-22c11.7-14.6 10.6-34.6 21-50-16.8-12.1-36.2-24.2-58-20-.8 0-2.3-.3-3 0-1.4.5-2.8 3-5 2a35 35 0 0 1 10-8c13.3-7.3 26-15.5 39-23a448.7 448.7 0 0 1 115-46 338 338 0 0 1 92-11m-302 85c8.8.7 14.2 2.8 20.3 10.8 6 7.9-1.6 14.6-2.6 23.9-1 9.3-12.1 6.7-20 3.5-7.7-3.2-13.2-12-11.7-20.2s4.6-18.7 14-18m-73 55c4.2 9.6 6.9 22.7-.8 32.2-7.6 9.6-19 10.6-30.3 6.9C89.7 345.3 87.1 334 85 324c-4-18.7 1.4-39 13-54 9.1 14.7 28.7 22.8 34 40m154-21c1.6 12-6.4 24.6-18 29-11.7 4.3-28.2-.9-26-16 1.3-9.1 7.2-19.9 16-23 9-3 26.6-1 28 10m-63 34a16 16 0 0 1 0 9c-3.3 11.6-13.2 20.3-26 18a17.3 17.3 0 0 1-10.8-27.8c8.1-10.8 25.3-4.3 36.8-4.2v5m296 50c-.5 2-.5 4-1 6-1.5 6-3.5 12-5 18-5.6 22-11.2 43.6-19 65-3.6 9.8-6.2 21.8-11 31-4.7 9.3-6.3 22.3-12.8 30.2-6.5 8-24.8 3.8-34.2 8.8-9.4 4.9-22.3 5.6-31 12-8.8 6.2-18 9.8-25.8 17.3-7.7 7.4-14.7 13.2-21.4 21.5a48.2 48.2 0 0 1-28 15c-10.3 2-17.1-12.1-26-16.5-9-4.5-17.8-10.8-27.9-15.2-10-4.5-21.4-7.6-33-10-11.5-2.4-28 .4-39.1 1.7-11 1.3-21 10.1-30.5 12.5-9.4 2.4-14.7-14.6-21.6-20-6.8-5.5-12.6-17-18.5-24.5-5.8-7.6-10.6-18.6-15.5-27.5A134 134 0 0 1 106 467c59.4-12.8 116-36.4 171-62 43.4-18.7 85.8-39.3 130-56a533.7 533.7 0 0 1 78-24c14.4-3 28.9-5.8 44-6-2.8 18.1-5.3 36.4-10 54m74 18-6 15c-6.8 17.9-15 35.5-24 52-13 23.9-25 49-43 70-1.2 1.4-2.1 3.4-4 4-.2-2.1.1-4.8 2-6a855.7 855.7 0 0 0 26-69c6.1-19.3 10.4-39.4 16-59a804 804 0 0 0 16-77 75.2 75.2 0 0 1 30.7 10.3c9 6.1-1.3 20-3 29.4-1.8 9.3-7.9 21-10.7 30.3M46 379a66.7 66.7 0 0 0-2 16c-17.2-2.3-26-20.5-31-35-2.6-5.1-8-8.7-10-14 21-7.2 60.4-22.3 69 9-12.2 1.7-22.2 12.8-26 24m199-41c9 6.5 21.3 1.6 31 3s12.5 17.8 3 20c-9.7 2-15 12.4-23.8 3.8-8.8-8.7-10.3-15-10.2-26.8m-84 27c4-.7 7.2 1 11 1a69.7 69.7 0 0 0-2 41c-11 5.4-22.9 9-35 11 4-9.6-1.1-21.8-2.8-30.2-1.6-8.5 13-11.1 16.6-18 3.5-7 12.2-13.3 13.2-21.8 3 5.1-1.3 11.4-1 17m29 30c-1.2-3.3-.4-5.9 0-9 .2-5 1.4-9.1 2-14 13 1.5 24.6-2.5 35-9-.2 5.5 14 14.4 7.8 18.8-6.2 4.3-15 5.8-21.9 9.1A80.1 80.1 0 0 1 190 399v-4m-98-19c2.8.6 3.8.8 6 2 2.6 1.4 4 2.6 6 5 20.1 16.5 10 43.5-15 47-5.3.7-11.5-.3-16-1-6.2-.3-12-1.7-18-3 .8-2 3.3-3 4-5 1-2 2.5-7 3-9 2-18.4 6.7-40.8 30-36m554 142c-.8 1.8-1.5 4-2 6-4.5-1.6-7.9-6.5-11-10a55.1 55.1 0 0 0-58-13 80.2 80.2 0 0 1 29-29c14.4-8.4 28.4.1 42.8 8.3 14.3 8.1 7 25.2-.8 37.7M68 500a85 85 0 0 0-39 10c-4.6-11.1-9.4-22.2-12-34 8-4.4 13.8-3.4 22.7-6.3 8.9-3 16 1.8 18.2 10.4 2.2 8.6 9.2 11.3 10.1 19.9m25 71H80c-4.2 0-8 .3-12 1-1.9.6-2.8 3-6 2-5.7-2-7.2-14.2-11.3-18.7A67.6 67.6 0 0 1 41 535c34.1-17.4 65.3 15 80 43a75.4 75.4 0 0 0-28-7m521 5c-5.9 9-11.9 18.2-23 14-11.1-4.2-14.5-11.2-22-20-2-2.3-5.7-6.2-7.8-8.3-2-2-8.2-4.5-8.2-7.7 0-2.5 7.2-7.6 9-9 21-16.6 48.7-17.4 67 5-4 9.2-10.5 17.2-15 26m-102 5h-13c-34.4 0-65.3 15-91 37l-10 10c-32.1 37.6-59.7 82.8-113 87-4.3.8-8.8.6-13 0-28-1-55.3-12.7-79-26 23-6.5 51.3 8 74 4 22.7-4 39.3-14 56.3-27.8 16.9-13.8 26.2-28.3 39.4-44.5 13.3-16.1 24.7-29.9 42.4-41.6A129 129 0 0 1 468 557c3.9-.3 8.1-.3 12 0 24 1.9 45.6 11.3 64 27-9.8 1.4-21-4.3-32-3m-278 3c11.5.4 26.5 5.4 36 10 9.6 4.4 21.3 11.6 28.3 17.8 6.9 6.2 24 17.4 14.4 24-9.4 6.6-18.6-9.1-27.8-13.7-9.1-4.6-19.8-13-30.6-16.4-10.7-3.5-25.4-11-38.3-7.7-13 3.3-23.4 11.4-37 8-2-.5-5.2-.3-6-3 .7-1.4 2.8-1 4-2 12.4-7.5 23.8-16 39-17a59 59 0 0 1 18 0m-53 51c3.6 0 7.4.3 11 0 17.5-1.4 37-16.8 54.7-6.7 17.6 10.1 32.8 8.8 45.3 24.7-4.3 1.5-7.6 5-12 6a68 68 0 0 1-35.2 5.2C232 663 220.6 659 208 659c-2.7.3-6.7.9-10 1a66.9 66.9 0 0 0-30 9c-8.6 5-16.5-3.6-24.3-8.8-7.7-5-14.8-12.2-21.7-18.2-16.8-8.9-29.3-28.4-41-42 40.2-8 64 31.1 100 35m370 11a92.9 92.9 0 0 1-20 16c-7.3 3.9-13.8 14.9-22.2 11.2-8.5-3.6-16.4-8.8-26-11-9.7-2.1-24.3-3-34.8-2.2-7.3.6-16.4 3.1-23 6-10.3 4.5-21.8 9-31 16-2.3 1.8-4.2 4.7-7 6 1.8-4.5 5-9 9-12 9.7-16 21.5-27.5 35.8-40.3 14.2-12.8 35-18.4 53.2-22.7 5.6-1.3 10.5-3 17-3 26.3 0 53-1.7 77 9-7.4 10-18.5 18.6-28 27Z"/>
  <path fill="#BCE6ED" stroke="None" d="M424 6h5c1.3 5-1.8 7.7-2 12 2.3-.7 1.9 2.9 4 3-.5-7 .4-14 0-21h-1c-2.1 1.5-3.9 4.4-6 6Z"/>
  <path fill="#A3F7F8" stroke="None" d="M300 67a63 63 0 0 0-10 15c-9 22-4.2 51.5 11 69 2.8-9.5 10.1-16.8 14.8-25.3 4.6-8.5 17.1-12.8 13.5-24-3.6-11.3 15-18.2 17.7-4.7 7-6.2 16.8-13 22.8-20.3 6-7.2 16.1-14.2 19.9-22 3.8-7.8 16.9-23 21.4-11.8 4.4 11.2-11 17.6-12.8 27.4-1.9 9.8-14.4 16.6-17.4 25.6-3 9-20 15-11.1 23.3 8.8 8.3-7.2 23.3-15.8 11.8-4.6 4.9-8.4 10.7-12 16 1 3.8 10.1 3.2 14 4 3.9.8 12.6 2 17 2 11 0 20-6.7 31-8 10.9-1.4 21.1-3.7 23.7-15.3 2.5-11.6 6.3-19.5 6.3-31.7V68c0-15.8-2-31.4-3-47-2.1-.1-1.7-3.7-4-3 .2-4.3 3.3-7 2-12h-5a205.4 205.4 0 0 1-63 30c-21.7 6.8-45.3 12.6-61 31Z"/>
  <path fill="#23616B" fill-opacity=".7" stroke="None" d="M288 78c0 1.1 1.9 3.3 2 4a63 63 0 0 1 10-15c-4 3.7-8 7-12 11Z"/>
  <path fill="#628995" fill-opacity=".6" stroke="None" d="M434 98c1-9.4 1-20.6 0-30v30Z"/>
  <path fill="#265A76" fill-opacity=".9" stroke="None" d="M301 151a70.7 70.7 0 0 1-11-69c-.1-.7-2-2.9-2-4a83.5 83.5 0 0 0-22 34c-5.2 13.2-3.2 34.4 2 47 5.3 12.4 10.6 26.2 25 30 0-13.4 3-26 8-38Z"/>
  <path fill="#9BF5F5" stroke="None" d="M119 166c0 5.8 1 13.5 1 20 0 8.6 1.9 18.5 3.8 26.2 1.9 7.7 4.7 16 9 22 4.2 6.1 8.4 12.3 14.9 15.1 6.5 2.8 18.2 9.2 25.3 5.7 3.5-7.1 9.5-14.5 2.3-20.3-7.3-5.7-6.8-13.2-12.3-19.7-12.6 6.6-18.4-14.8-6-18-4.3-10.4-9.8-17.7-11-30-1.3-12.1-7.5-20.6-5-35 2.6-14.2 18-3.7 17 8s8 19.2 11 29c3.2 9.7 10 16 17 23 1.2-11.7 23-6.5 17.3 4.3-5.6 10.8-2.4 17 4.7 25.7 5.2.8 13.6-6.3 17.8-9.3A45 45 0 0 0 238 198a69 69 0 0 0 2-6c.5-3.9 1.5-8 1-12-21-43.8-79-55-100-100a285.4 285.4 0 0 0-22 86Z"/>
  <path fill="#4F6B69" fill-opacity=".4" stroke="None" d="M514 103h14c-4.4-.4-9.5-.7-14 0Z"/>
  <path fill="#BCF7F6" stroke="None" d="M512 131c6.6-.6 23.9-1.3 17-10-6.7-8.8-1.9-16.2-12-18h-3c-17.3-2.3-27.2 12.7-23 29 7.2-.2 13.7-1 21-1Z"/>
  <path fill="#F5F8F8" stroke="None" d="M512 131c19.6-1 37.8 3.7 56 8 6.5-26-19.4-36-40-36h-11c10.1 1.8 5.3 9.2 12 18 6.9 8.7-10.4 9.4-17 10Z"/>
  <path fill="#2D5E74" fill-opacity=".9" stroke="None" d="M373 153c-4.4 0-13.1-1.2-17-2-3.9-.8-13-.2-14-4-5.4 6.6-9 15-12 23 14.4-5 30-12 43-17Z"/>
  <path fill="#74BEC9" stroke="None" d="M119 172c0 3.9-.5 8.1 0 12 .1 1.1.8 1.4 1 2 0-6.5-1-14.2-1-20-.2 2 0 4 0 6Z"/>
  <path fill="#5F6466" fill-opacity=".4" stroke="None" d="M496 170h11c-3.4-.3-7.5-.3-11 0Z"/>
  <path fill="#F9FAFB" stroke="None" d="M415 181c.6 4 5 2.9 8 3-.4 2.5 4.9 6.8 9 6 7 11.1 25.4 11.5 32 23 13 .3 27 .8 38.2 4.8 11.3 4 21 8.7 31.8 12.2 6.5 7.5 16.5 13.5 23 22 6.7 8.3 17.4 14.6 19 26 16.2 2.1 31.6 7.2 46 15 2.5-11 3-22.4 3-34v-16c0-17.5.4-38.6-16-48a158 158 0 0 0-45.8-18.2A227 227 0 0 0 507 170h-11a338 338 0 0 0-81 11m167 22c32.8 3.4 27.7 56.5-6 53s-27-56.5 6-53Z"/>
  <path fill="#1A5564" fill-opacity=".8" stroke="None" d="M116 180c.4 2 2 2.3 3 4-.5-3.9 0-8.1 0-12-.3 1.1-2.3 5.5-3 8Z"/>
  <path fill="#265A76" fill-opacity=".9" stroke="None" d="M169 282c-.7-4-.7-8 0-12 .4-5.2 2-10.3 4-15-7.2 3.5-18.8-3-25.3-5.7-6.5-2.8-10.7-9-15-15-4.2-6.2-7-14.4-9-22-1.8-7.8-3.7-17.7-3.7-26.3-.2-.6-.9-.9-1-2-1-1.7-2.6-2-3-4-16.2 43.5 3.5 99.8 50 115-3 3.2-9.2 11.9-5.2 14.2 4 2.4 13.7-6 14.2-9.2.4-3.2-5.7-13.5-6-18Z"/>
  <path fill="#275D7B" fill-opacity=".9" stroke="None" d="M240 192c-.4 3.7-.7 3.8-2 6a45 45 0 0 1-12.3 14.8c-4.1 2.9-12.5 10-17.7 9.2 5 6 9.2 13 16.3 7.3 7-5.8 11.3-7.2 18.7-11.3 1.2-1 1.8-5 5-4v-8c0-9.6-3-18-7-26 .5 4-.5 8.1-1 12Z"/>
  <path fill="#C8FBFB" stroke="None" d="M300 227c-1.8 4.7 5.7 10.5 6.8 15.2 1 4.7 4.6 10.6 6.5 15.5 2 4.9 4.8 11.2 6.7 16.3 10.6-8.2 25.4-12.3 34-22 1.1 1 1.3 2.3 3 1-.4-2.7.6-5 1-7 3.6-17.6 23-29.7 39.7-20.7A27.1 27.1 0 0 1 403 269c4-1.6 7.3-7 12-11-3 6.2 7.8 7.6 8 14 2.1-2.7 9.7 2.2 9 6 6.3-1.4 7.9 2.3 13 4 5.3 1.5 7.4 5.1 10 6 .7 2.2-2.7 1.7-2 4a336 336 0 0 1 94-15c4-.4 9-.4 13 0 5.5 0 10.8.1 16 1-1.6-11.4-12.3-17.7-19-26-6.5-8.5-16.5-14.5-23-22-10.8-3.5-20.5-8.2-31.8-12.2s-25.1-4.5-38.2-4.8c-6.6-11.5-25-11.9-32-23-4.1.8-9.4-3.5-9-6-3-.1-7.4 1-8-3a448.7 448.7 0 0 0-115 46Z"/>
  <path fill="#177C7D" stroke="None" d="M238 198c1.3-2.2 1.6-2.3 2-6a69 69 0 0 1-2 6Z"/>
  <path fill="#01010E" stroke="None" d="M582 203c-33-3.5-39.7 49.5-6 53s38.8-49.6 6-53Z"/>
  <path fill="#15354F" fill-opacity=".2" stroke="None" d="M243 218c6.3-3.6 5.6-5.8 5-12v8c-3.2-1-3.8 3-5 4Z"/>
  <path fill="#010210" stroke="None" d="M358 246c-.3 2.8-.3 6.2 0 9 3.7 11 9 18.3 21 21 3 .3 6 0 9 0h1c2.4-3.2 5.6-2.7 9-4 1.4-1 3.5-1.6 5-3a27.1 27.1 0 0 0-5.3-43.7c-16.7-9-36 3.1-39.7 20.7Z"/>
  <path fill="#255A75" fill-opacity=".9" stroke="None" d="M261 250c-.7.6-1.2 1.4-2 2-1.1 1.7 1.8 3 0 4 21.8-4.2 41.2 7.9 58 20-10.4 15.4-9.3 35.4-21 50a48.5 48.5 0 0 1 12 22c8-3.4 15.9-7 24-10 2.6-1.3 4.8-3 8-4 1-.3 1.3-.7 2-1-.1-3.5-5.9-9.2-6-14-.1-4.8-4.8-9.6-5.3-14.7-.5-5-4-9.5-5.5-14.5-1.4-5-3.4-10.8-5.2-15.8-1.9-5.1-4.8-11.4-6.7-16.3-2-5-5.4-10.8-6.5-15.5-1.1-4.7-8.6-10.5-6.8-15.2-13 7.5-25.7 15.7-39 23Z"/>
  <path fill="#656E76" fill-opacity=".5" stroke="None" d="M625 259c.5-5 .5-11 0-16v16Z"/>
  <path fill="#4E797D" stroke="None" d="M357 253c.2 1.3.7 1.2 1 2-.3-2.8-.3-6.2 0-9-.4 2-1.4 4.3-1 7Z"/>
  <path fill="#1E3442" fill-opacity=".1" stroke="None" d="M256 256c-.2.2 1.8-3 3-4 .8-.6 1.3-1.4 2-2a35 35 0 0 0-10 8c2.2 1 3.6-1.5 5-2Z"/>
  <path fill="#3E5068" fill-opacity=".5" stroke="None" d="M256 256c.7-.3 2.2 0 3 0 1.8-1-1.1-2.3 0-4a17 17 0 0 0-3 4Z"/>
  <path fill="#93F2F3" stroke="None" d="M320 274c1.8 5 3.8 10.8 5.2 15.8 1.5 5 5 9.4 5.5 14.5s5.2 9.9 5.3 14.7c.1 4.8 5.9 10.5 6 14a759 759 0 0 1 111-41c-.7-2.3 2.7-1.8 2-4-2.6-.9-4.7-4.5-10-6-5.1-1.7-6.8-5.4-13-4 .7-3.8-6.9-8.7-9-6-.2-6.4-11-7.8-8-14-4.7 4-8 9.4-12 11-1.5 1.4-3.6 2-5 3-3 2-4.9 3.8-9 4h-1c-2.8 2-6.4.6-9 0-12-2.7-17.3-10-21-21-.3-.8-.8-.8-1-2-1.7 1.3-1.9 0-3-1-8.6 9.7-23.4 13.8-34 22Z"/>
  <path fill="#B8F5F6" stroke="None" d="M205 255c-9.4-.7-12.5 9.8-14 18s4 17 11.8 20.2c7.8 3.2 18.8 5.8 19.9-3.5 1-9.3 8.6-16 2.6-24-6.1-7.9-11.5-10-20.3-10.7Z"/>
  <path fill="#94F4F4" stroke="None" d="M85 324c12 17.4 48.3 8.2 47-14-5.3-17.2-24.9-25.3-34-40a67.2 67.2 0 0 0-13 54Z"/>
  <path fill="#1A304E" fill-opacity=".2" stroke="None" d="M169 282c-.3-3.9-.3-8.1 0-12-.7 4-.7 8 0 12Z"/>
  <path fill="#072A29" stroke="None" d="M389 276c4.1-.2 6-2 9-4-3.4 1.3-6.6.8-9 4Z"/>
  <path fill="#165751" stroke="None" d="M388 276c-3 0-6 .3-9 0 2.6.6 6.3 2 9 0Z"/>
  <path fill="#6E8187" fill-opacity=".6" stroke="None" d="M547 277h13c-4-.4-9-.4-13 0Z"/>
  <path fill="#CCF7F8" stroke="None" d="M242 302c2.8-2.8 11.8 1 16.2-.8 4.4-1.8 11.7-1.4 16-4 4.4-2.6 8.2-4.4 11.8-8.2-1.4-11-19-13-28-10-8.8 3.1-14.7 13.9-16 23Z"/>
  <path fill="#7ADFDF" stroke="None" d="M242 302c-2.2 15.1 14.3 20.3 26 16a28.3 28.3 0 0 0 18-29c-3.6 3.8-7.4 5.6-11.8 8.2-4.3 2.6-11.6 2.2-16 4-4.4 1.9-13.4-2-16.2.8Z"/>
  <path fill="#275C78" fill-opacity=".9" stroke="None" d="M85 324c2.1 10 4.7 21.3 16 25 11.1 3.8 22.6 2.8 30.2-6.8 7.7-9.5 5-22.6.8-32.2 1.3 22.2-35 31.4-47 14Z"/>
  <path fill="#8EF0ED" stroke="None" d="M223 332c.4-2.6.3-6.3 0-9v-5c-11.5 0-28.7-6.6-36.8 4.3-8 10.8-2 25.4 10.8 27.7 12.8 2.3 22.7-6.4 26-18Z"/>
  <path fill="#E6F7F7" stroke="None" d="M485 325c2.7 0 7.5 2.1 11 1 7.6 6.3 10.5 13.6 17.7 20.3 7.2 6.7 6.8 17.6 5.3 26.7 4.8-17.6 7.2-35.9 10-54-15.1.2-29.6 3-44 6Z"/>
  <path fill="#F7F8F9" stroke="None" d="M565 378c1.5 4.4 9 3.3 12.1 5.9 3.1 2.6 10.8 3.8 14.9 4.1.1 1-.5 2.7 1 3 2.8-9.3 9-21 10.7-30.3 1.7-9.3 12-23.3 3-29.4-9-6.1-20.3-8.6-30.7-10.3a804 804 0 0 1-11 57Z"/>
  <path fill="#356E7B" fill-opacity=".5" stroke="None" d="M223 332c1-3.2.8-5.7 0-9 .3 2.7.4 6.4 0 9Z"/>
  <path fill="#ADF9FA" stroke="None" d="M407 349c1-.1 4.3 1.8 6 0-3.5 8.3 1.1 16.3-1 25 5.7-1 3.4 3.4-1 2-.8 3.8 5.7 0 5 4-3.7-.7-11.3 1.1-11 4 15-8.9 17.4 14.4 31.2 14.8 13.8.4 24.4-6.1 27.1-21.5 2.8-15.4 23.3-11.2 22.7 5.7 2.8-4.3 10.6-1.3 15-3s12-.8 17-1c.5-2 .5-4 1-6 1.5-9 1.9-20-5.3-26.7-7.2-6.7-10.1-14-17.7-20.3-3.5 1.1-8.3-1-11-1a533.7 533.7 0 0 0-78 24Z"/>
  <path fill="#092D48" fill-opacity=".1" stroke="None" d="M332 338c3-1 5.4-2.7 8-4-3.2 1-5.4 2.7-8 4Z"/>
  <path fill="#94F2F2" stroke="None" d="M13 360a56 56 0 0 0 13.2 12.8c4.4 2.4 14.6 9.1 19.8 6.2 3.8-11.2 13.8-22.3 26-24-8.6-31.3-48-16.2-69-9 2 5.3 7.4 8.9 10 14Z"/>
  <path fill="#448FA0" fill-opacity=".9" stroke="None" d="M245 338c0 11.8 1.4 18.1 10.3 26.8 8.8 8.6 14-1.8 23.6-3.9 9.6-2.1 6.8-18.4-2.9-19.9-9.7-1.4-22 3.5-31-3Z"/>
  <path fill="#275875" fill-opacity=".9" stroke="None" d="M161 365c-.3-5.6 4-11.9 1-17-1 8.5-9.7 14.8-13.3 21.8-3.5 6.9-18.1 9.5-16.5 18 1.7 8.4 6.9 20.6 2.8 30.2 12.1-2 24-5.6 35-11a69.7 69.7 0 0 1 2-41c-3.8 0-7-1.7-11-1Z"/>
  <path fill="#84E9EC" stroke="None" d="M277 405c.2 5.9 3.2 12.8 5 18 1.7 5.4 2.7 13 5.8 17.2 3 4.3 3 14.8 8.2 15.8 11.1-5 28.2-11.2 38.7-16.3 10.5-5.1 29.4-18.7 36.2-2.6 6.8 16-16.8 20.3-27 25.8C333.8 468.4 317 475 306 480c-3.3 4.2 4.8 10.5 6 15 1 4.6 5.4 10.9 7.3 15.7 1.9 4.8 6.4 10.1 7.7 15.3 56-20.4 108.4-51.6 167-64 7.8-21.4 13.4-43 19-65-4.3 2.4-12.2-1.2-17 1-4.8 2.1-10.6-1.4-15 2a48.8 48.8 0 0 1-50 23c-18-3.4-39.2-21.6-26-39-.3-2.9 7.3-4.7 11-4 .7-4-5.8-.2-5-4 4.4 1.4 6.7-3 1-2 2.1-8.7-2.5-16.7 1-25-1.7 1.8-5-.1-6 0-44.2 16.7-86.6 37.3-130 56Z"/>
  <path fill="#205069" fill-opacity=".8" stroke="None" d="M46 379c-5.2 3-15.4-3.8-19.8-6.2A56 56 0 0 1 13 360c5 14.5 13.8 32.7 31 35 .2-5.5.6-10.9 2-16Z"/>
  <path fill="#275A75" fill-opacity=".9" stroke="None" d="M190 386c-.1 2.7-.6 6.3 0 9v4c7.7-1 16.1-4.8 23-8 6.8-3.4 15.6-5 21.8-9.3 6.1-4.3-8-13.2-7.8-18.7a53.4 53.4 0 0 1-35 9c-.6 4.9-1.8 9-2 14Z"/>
  <path fill="#020311" stroke="None" d="M405 384c-13.2 17.4 8 35.6 26 39 18 3.4 40.8-5.5 50-23a40 40 0 0 0 5-17c.6-17-20-21-22.7-5.7-2.7 15.4-13.3 21.9-27 21.5-13.9-.4-16.2-23.7-31.3-14.8Z"/>
  <path fill="#2C6175" fill-opacity=".9" stroke="None" d="M62 412c-.1 1 .2 8.1 1 5 10-11.3 12.2-37.1 31-39-.6-.1-3.2-2.6-2-2-23.3-4.8-28 17.6-30 36Z"/>
  <path fill="#396D74" fill-opacity=".5" stroke="None" d="M94 378c1.2-.1 2.8-.2 4 0a18.4 18.4 0 0 0-6-2c-1.2-.6 1.4 1.9 2 2Z"/>
  <path fill="#99F5F5" stroke="None" d="m63 417-4 4c-.7 2-3.2 3-4 5 6 1.3 11.8 2.7 18 3a45 45 0 0 0 16-1c17.7-5.7 27.8-30 15-45-2-2.4-3.4-3.6-6-5-1.2-.2-2.8-.1-4 0-18.8 1.9-21 27.7-31 39Z"/>
  <path fill="#69C8CF" stroke="None" d="M560 398c3.8 1.2 9.7 3.4 13.7 3.3 4 0 9.5 6.5 13.3 4.7l6-15c-1.5-.3-.9-2-1-3-4.1-.4-11.8-1.5-14.9-4.1-3.1-2.6-10.6-1.5-12.1-5.9-1.4 6.2-3.1 13.5-5 20Z"/>
  <path fill="#62BFC9" stroke="None" d="M486 383a40 40 0 0 1-5 17c4.4-3.4 10.2.1 15-2 4.8-2.2 12.8 1.4 17-1 1.5-6 3.5-12 5-18-5 .3-12.6-.7-17 1s-12.2-1.3-15 3Z"/>
  <path fill="#286079" fill-opacity=".8" stroke="None" d="M89 428c-.2.3.2 2 0 2 25-3.5 35.1-30.5 15-47 12.8 15 2.7 39.3-15 45Z"/>
  <path fill="#062643" fill-opacity=".1" stroke="None" d="M190 395c-.6-2.7-.1-6.3 0-9-.4 3.1-1.2 5.7 0 9Z"/>
  <path fill="#B4F6F6" stroke="None" d="M544 457c5.8-2.6 13.2 3.2 19 1 9-16.5 17.2-34.1 24-52-3.8 1.8-9.4-4.7-13.3-4.7-4 0-9.9-2-13.7-3.3-5.6 19.6-9.9 39.7-16 59Z"/>
  <path fill="#225976" stroke="None" d="M494 462c-58.6 12.4-111 43.6-167 64-1.3-5.2-5.8-10.5-7.7-15.3-1.9-4.8-6.3-11-7.4-15.6-1-4.6-9.2-11-5.9-15.1-13.5 6-25.2 10-39 16s-25.8 8.7-40.2 14.8c-14.5 6-26.2 6-41.8 13.2-15.7 7.2-26.6-18-10-23 16.7-4.9 26-9.5 41.2-13.8 15.2-4.3 25.9-9.9 40-15A611.9 611.9 0 0 0 296 456c-5.3-1-5.1-11.5-8.2-15.8-3.1-4.2-4.1-11.8-5.9-17.1-1.7-5.3-4.7-12.2-4.9-18.1-55 25.6-111.6 49.2-171 62a134 134 0 0 0 11.7 31.3c4.9 8.9 9.7 20 15.5 27.5 5.9 7.5 11.7 19 18.6 24.5 6.8 5.4 12 22.4 21.5 20 9.4-2.4 19.4-11.2 30.5-12.5 11-1.3 27.6-4.1 39.1-1.7 11.6 2.4 23 5.5 33 10 10.1 4.4 19 10.7 27.9 15.1 8.9 4.5 15.7 18.7 26 16.6a49.2 49.2 0 0 0 28-15c6.7-8.3 13.7-14 21.4-21.5 7.8-7.5 17-11 25.7-17.4 8.8-6.3 21.7-7 31-12 9.5-4.9 27.8-.7 34.3-8.7 6.5-8 8.1-20.9 12.9-30.1 4.7-9.3 7.3-21.3 10.9-31.1Z"/>
  <path fill="#295963" fill-opacity=".5" stroke="None" d="m59 421 4-4c-.8 3.1-1.1-4-1-5-.5 2-2 7-3 9Z"/>
  <path fill="#103E43" fill-opacity=".3" stroke="None" d="M73 429c4.5.7 10.8 1.7 16 1 .2 0-.2-1.7 0-2a46.6 46.6 0 0 1-16 1Z"/>
  <path fill="#020210" stroke="None" d="M296 456a611.9 611.9 0 0 1-39.8 16.2c-14.1 5.1-24.8 10.7-40 15-15.1 4.3-24.5 9-41.1 13.9-16.7 5-5.8 30 9.9 22.9 15.6-7.2 27.3-7.2 41.8-13.2 14.4-6 26.4-8.9 40.2-14.8 13.8-6 25.5-10 39-16 11-5 27.8-11.6 38-17 10-5.6 33.7-9.9 27-26-6.9-16-25.8-2.4-36.3 2.7-10.5 5-27.6 11.4-38.7 16.3Z"/>
  <path fill="#295976" fill-opacity=".8" stroke="None" d="M518 526c-.2 1.2-.5 2-1 3 1.3.5 1.9-1 3-1 18-21 30-46.1 43-70-5.8 2.2-13.2-3.6-19-1a855.7 855.7 0 0 1-26 69Z"/>
  <path fill="#8FF0EF" stroke="None" d="M633 514c3 1 9.3 1 13 4 7.7-12.5 15.1-29.6.8-37.8-14.4-8.1-28.4-16.6-42.7-8.1A80.2 80.2 0 0 0 575 501c20.2-7.6 43-2 58 13Z"/>
  <path fill="#85E5E5" stroke="None" d="M68 500c-.9-8.6-7.9-11.3-10-20-2.3-8.5-9.4-13.2-18.3-10.3-9 2.9-14.7 1.9-22.7 6.3 2.6 11.8 7.4 22.9 12 34a85 85 0 0 1 39-10Z"/>
  <path fill="#498A96" fill-opacity=".8" stroke="None" d="M633 514c3.1 3.5 6.5 8.4 11 10 .5-2 1.2-4.2 2-6-3.7-3-10-3-13-4Z"/>
  <path fill="#1C2846" fill-opacity=".1" stroke="None" d="M520 528c-1.1 0-1.7 1.5-3 1 .5-1 .8-1.8 1-3-1.9 1.2-2.2 3.9-2 6 1.9-.6 2.8-2.6 4-4Z"/>
  <path fill="#80E2E4" stroke="None" d="M62 574c1.2-2.2 3.9-1.6 6-2 4-.7 7.8-1 12-1 4.1-.4 8.9-.5 13 0 9.9.3 19.2 3.1 28 7-14.8-28-45.9-60.4-80-43 2 5.8 5.6 15.8 9.7 20.3S56.3 572.1 62 574Z"/>
  <path fill="#80E4E7" stroke="None" d="M562 545c-3 2.8-5.3 7-9 9 0 3.2 6.2 5.7 8.3 7.8 2 2 5.7 5.9 7.7 8.2 6.5-4.4 18.3.2 24.7-.7 6.3-.8 16 9.5 20.3 6.7 4.5-8.8 11-16.8 15-26-18.3-22.4-46-21.6-67-5Z"/>
  <path fill="#406B70" fill-opacity=".4" stroke="None" d="M553 554c3.7-2 6-6.2 9-9-1.8 1.4-9 6.5-9 9Z"/>
  <path fill="#9FF6F6" stroke="None" d="M272 715c4.2.2 8.8.3 13 0 53.3-4.2 80.9-49.4 113-87 3-3.6 6.4-7 10-10 25.7-22 56.6-37 91-37 4-.4 9-.4 13 0 11-1.3 22.2 4.4 32 3a110.5 110.5 0 0 0-64-27h-12a129 129 0 0 0-63 22c-17.6 11.9-29 25.6-42.3 41.8-13.2 16.1-22.5 30.6-39.4 44.5A117.5 117.5 0 0 1 267 693c-22.7 4-51-10.5-74-4 23.7 13.3 51 25 79 26Z"/>
  <path fill="#A9CBD4" stroke="None" d="M480 557c-3.9-.3-8.1-.3-12 0h12Z"/>
  <path fill="#265872" fill-opacity=".9" stroke="None" d="M569 570c7.5 8.8 10.9 15.8 22 20 11.1 4.2 17.1-5 23-14-4.3 2.8-14-7.5-20.3-6.7-6.4 1-18.2-3.7-24.7.7Z"/>
  <path fill="#365762" fill-opacity=".3" stroke="None" d="M80 571h13c-4.1-.5-8.9-.4-13 0Z"/>
  <path fill="#3F6979" fill-opacity=".7" stroke="None" d="M62 574c3.2 1 4.1-1.4 6-2-2.1.4-4.8-.2-6 2Z"/>
  <path fill="#4D606A" fill-opacity=".4" stroke="None" d="M499 581h13c-4-.4-9-.4-13 0Z"/>
  <path fill="#283552" fill-opacity=".2" stroke="None" d="M216 584c5.9-.4 12.1-.2 18 0a59 59 0 0 0-18 0Z"/>
  <path fill="#295F7C" fill-opacity=".9" stroke="None" d="M177 601c-.7 1.3-1.2 2.5-1 4 1 .1 2.7-.5 3 1 13.6 3.4 24-4.7 37-8s27.6 4.2 38.3 7.7c10.8 3.4 21.4 11.8 30.6 16.4 9.2 4.6 18.4 20.3 27.9 13.6 9.4-6.6-7.6-17.8-14.6-24a134.9 134.9 0 0 0-28.1-17.8A106.5 106.5 0 0 0 216 584c-15.2 1-26.6 9.5-39 17Z"/>
  <path fill="#93F2F2" stroke="None" d="M122 642c15.8 8.3 35.8 14 54 14h16c16 0 30.1-6 46-6 3.2-.3 6.8-.4 10 0 5.8.1 11.6 2 17 3s9.6 6.3 15 6c4.4-1 7.7-4.5 12-6-12.5-15.9-27.7-14.6-45.3-24.7-17.7-10-37.2 5.3-54.7 6.7a35 35 0 0 1-11 0c-36-3.9-59.8-43-100-35 11.7 13.6 24.2 33.1 41 42Z"/>
  <path fill="#2B535A" fill-opacity=".3" stroke="None" d="M179 606c-.3-1.5-2-.9-3-1-.2-1.5.3-2.7 1-4-1.2 1-3.3.6-4 2 .8 2.7 4 2.5 6 3Z"/>
  <path fill="#8DF0F1" stroke="None" d="M502 610c-4.6.7-10.4 3.2-15 5a139 139 0 0 0-46 31c-4.7 4.7-13 11.4-16 17 0 .2-.4 3.7 0 3a78.9 78.9 0 0 1 23-6c20.7-6.4 41-14 64-14 7.5-.7 16.5-.7 24 0 4.3 0 11.5 1.4 15 0 9.5-8.4 20.6-17 28-27-24-10.7-50.8-9-77-9Z"/>
  <path fill="#1B5759" fill-opacity=".6" stroke="None" d="M485 613c.3.1 1.8 2 2 2 4.6-1.8 10.4-4.3 15-5-6.5 0-11.4 1.7-17 3Z"/>
  <path fill="#265A70" fill-opacity=".9" stroke="None" d="M396 676c-1.3 2.2-1.4 4.7-2 6 9.2-7 20.7-11.5 31-16-.4.7 0-2.8 0-3 1.2-5.8 7-7 7-13 4.8.9 3.5-6.3 9-4a139 139 0 0 1 46-31c-.2 0-1.7-1.9-2-2-18.2 4.3-39 10-53.3 22.8A176.5 176.5 0 0 0 396 676Z"/>
  <path fill="#386C6E" fill-opacity=".4" stroke="None" d="m398 628 10-10c-3.6 3-7 6.4-10 10Z"/>
  <path fill="#6C9199" fill-opacity=".7" stroke="None" d="M192 635c-3.6.3-7.4 0-11 0 3.6.4 7.3.7 11 0Z"/>
  <path fill="#285C76" fill-opacity=".9" stroke="None" d="M198 660c2.8-.4 6.5-1 10-1 12.6 0 24.1 4 36.8 5.2A68 68 0 0 0 280 659c-5.4.3-9.6-5-15-6s-11.2-2.9-17-3h-10c-15.9 0-30 6-46 6-5 .5-11 .5-16 0-18.2 0-38.2-5.7-54-14 7 6 14 13.1 21.8 18.3 7.7 5 15.6 13.7 24.1 8.6 8.6-5 20-8.5 30.1-8.9Z"/>
  <path fill="#0E676C" stroke="None" d="M512 646h24c-7.5-.7-16.5-.7-24 0Z"/>
  <path fill="#1F7078" stroke="None" d="M425 663c3-5.6 11.3-12.3 16-17-5.5-2.3-4.2 4.9-9 4 0 6-5.8 7.2-7 13Z"/>
  <path fill="#235975" fill-opacity=".9" stroke="None" d="M448 660c10.5-.8 25.1 0 34.8 2.2 9.6 2.2 17.5 7.4 26 11 8.4 3.7 14.9-7.3 22.1-11.3 7.3-4 14.2-10 20.1-15.9-3.5 1.4-10.7 0-15 0h-24c-23 0-43.3 7.6-64 14Z"/>
  <path fill="#489AA6" stroke="None" d="M238 650h10c-3.2-.4-6.8-.3-10 0Z"/>
  <path fill="#5CA0AD" stroke="None" d="M192 656h-16c5 .5 11 .5 16 0Z"/>
  <path fill="#092545" fill-opacity=".1" stroke="None" d="M198 660c3.3-.1 7.3-.7 10-1-3.5 0-7.2.6-10 1Z"/>
  <path fill="#29384F" fill-opacity=".2" stroke="None" d="M394 682c.6-1.3.7-3.8 2-6-4 3-7.2 7.5-9 12 2.8-1.3 4.7-4.2 7-6Z"/>
  <path fill="#1B314C" fill-opacity=".1" stroke="None" d="M447 686c1.1 0 3.2 1.1 5 1 3.4-.2 7.3-1 11-1-5-.5-10.4-.8-16 0Z"/>
  <path fill="#113855" fill-opacity=".9" stroke="None" d="M371 721h9c9.9-1 21.3-3.2 31-5 5.1-3.2 13.5-9.9 21.2-12.8 7.8-2.8 13-12.4 19.8-16.2-1.8.1-3.9-1-5-1-12-.3-24.6 7.2-35 11-10.4 3.9-18.5 18-30 11-11.4-7.2-19.5-.4-27 10 4.1 2.1 11 1.3 16 3Z"/>
  <path fill="#2D627D" fill-opacity=".9" stroke="None" d="M452 687c-6.9 3.8-12 13.4-19.8 16.2-7.7 2.9-16 9.6-21.2 12.8 25.4-3.4 49-13.4 72-24-3.9-5-13.2-6-20-6-3.8 0-7.6.8-11 1Z"/>
  <path fill="#002C2E" fill-opacity=".1" stroke="None" d="M285 715c-4.2.3-8.8.2-13 0 4.2.6 8.7.8 13 0Z"/>
</svg>
